<?xml version="1.0" standalone="no"?>
<!DOCTYPE svg PUBLIC "-//W3C//DTD SVG 20010904//EN"
 "http://www.w3.org/TR/2001/REC-SVG-20010904/DTD/svg10.dtd">
<svg version="1.0" xmlns="http://www.w3.org/2000/svg"
 width="840.000000pt" height="840.000000pt" viewBox="0 0 840.000000 840.000000"
 preserveAspectRatio="xMidYMid meet">
<metadata>
Created by potrace 1.14, written by Peter Selinger 2001-2017
</metadata>
<g transform="translate(0.000000,840.000000) scale(0.100000,-0.100000)"
fill="#000000" stroke="none">
<path d="M5530 8194 c-8 -2 -31 -5 -52 -9 -38 -6 -96 -52 -118 -95 -13 -25
-14 -73 -9 -1085 1 -234 -2 -330 -10 -333 -23 -8 -137 -96 -169 -131 -17 -20
-52 -78 -77 -128 l-46 -93 -57 -1 c-65 -1 -422 2 -467 4 -51 2 -129 -13 -150
-28 -14 -12 -20 -30 -22 -78 -4 -74 13 -104 68 -116 19 -4 168 -7 331 -5 l298
2 9 -34 c5 -18 19 -47 30 -63 12 -16 21 -32 21 -35 0 -12 72 -109 99 -132 14
-13 50 -36 79 -50 29 -15 55 -31 58 -35 3 -5 6 -283 7 -617 l2 -608 35 -44
c19 -25 42 -50 50 -57 25 -20 117 -31 160 -19 43 12 58 22 97 67 l41 48 1 578
c0 318 1 594 1 613 0 43 4 49 60 87 65 44 97 78 151 163 27 41 52 80 56 85 5
6 16 22 25 37 l17 26 193 -4 c436 -10 449 -8 474 52 22 53 18 90 -15 126 l-29
33 -301 -2 c-338 -3 -312 -8 -364 77 -11 19 -23 37 -27 40 -3 3 -17 23 -31 45
-34 52 -99 117 -154 155 -24 17 -47 40 -51 53 -4 12 -8 321 -9 687 l-2 665
-23 48 c-12 26 -36 57 -52 68 -32 23 -104 47 -128 43z"/>
<path d="M1010 8000 c-89 -15 -146 -86 -138 -170 5 -53 55 -165 125 -279 51
-85 72 -121 116 -201 17 -30 41 -72 54 -92 13 -21 23 -40 23 -42 0 -2 22 -40
50 -83 27 -43 56 -92 64 -109 8 -18 48 -87 89 -155 80 -133 297 -509 297 -515
0 -2 19 -34 43 -71 24 -38 87 -144 141 -238 54 -93 133 -227 175 -298 42 -70
81 -135 86 -145 6 -9 30 -50 54 -91 24 -41 56 -97 71 -125 15 -28 37 -69 50
-91 12 -22 34 -60 48 -85 14 -25 39 -67 56 -95 18 -27 56 -99 85 -160 29 -60
66 -138 83 -172 37 -77 76 -104 152 -107 59 -2 116 10 116 24 0 6 7 10 15 10
20 0 68 68 96 137 27 68 74 159 136 260 23 40 43 77 43 83 0 5 5 10 10 10 6 0
10 4 10 9 0 6 30 61 66 123 37 62 80 138 97 168 17 30 42 73 55 95 46 72 122
208 122 216 0 4 4 9 8 11 4 2 19 23 33 48 29 51 40 69 131 226 36 61 68 117
72 125 4 8 12 23 19 34 7 11 30 52 52 90 22 39 50 88 63 110 13 22 28 52 35
68 6 15 14 27 18 27 4 0 12 14 19 30 7 17 17 30 23 30 6 0 8 3 4 6 -3 4 8 29
26 58 18 28 38 62 45 76 7 14 26 48 44 75 17 28 38 64 48 80 61 108 103 178
110 185 3 3 17 26 30 53 14 26 28 47 32 47 5 0 8 4 8 9 0 5 27 55 60 110 33
56 60 105 60 110 0 5 7 14 15 21 8 7 13 16 10 20 -3 5 -2 10 3 12 9 4 157 263
171 300 20 54 -7 147 -55 186 -46 38 -132 57 -189 41 -63 -17 -103 -63 -174
-199 -19 -36 -41 -73 -49 -82 -8 -10 -12 -18 -9 -18 4 0 -9 -25 -28 -55 -19
-30 -35 -57 -35 -61 0 -3 -13 -26 -30 -51 -16 -24 -30 -46 -30 -48 0 -2 -26
-50 -59 -107 -32 -57 -80 -143 -106 -193 -26 -49 -60 -108 -75 -130 -14 -22
-63 -105 -109 -185 -46 -80 -114 -197 -151 -260 -37 -63 -83 -142 -101 -175
-18 -33 -54 -95 -81 -138 -26 -43 -48 -80 -48 -82 0 -3 -31 -57 -70 -121 -38
-65 -70 -119 -70 -120 0 -1 -27 -44 -60 -95 -52 -82 -130 -214 -153 -259 -4
-8 -18 -33 -32 -55 -14 -22 -39 -69 -56 -105 -18 -36 -36 -66 -41 -68 -4 -2
-8 -8 -8 -13 0 -6 6 -7 13 -4 6 4 4 0 -5 -8 -10 -8 -18 -18 -18 -22 0 -4 -12
-19 -27 -33 -25 -23 -28 -24 -38 -7 -5 10 -20 29 -32 43 -13 14 -23 31 -23 38
0 8 -4 14 -9 14 -5 0 -14 12 -20 28 -6 15 -22 45 -36 67 -14 22 -28 47 -32 55
-4 8 -21 38 -37 65 -17 28 -36 59 -43 70 -7 11 -38 64 -70 118 -32 54 -63 106
-68 115 -96 162 -130 218 -135 222 -3 3 -6 11 -8 19 -2 8 -12 27 -23 42 -10
15 -19 31 -19 36 0 5 -9 19 -20 31 -11 12 -25 32 -30 44 -6 13 -22 41 -35 63
-14 22 -28 47 -32 55 -4 8 -10 17 -13 20 -4 3 -17 23 -29 45 -12 22 -31 56
-43 75 -36 60 -100 174 -149 265 -17 33 -46 83 -63 110 -17 28 -47 79 -66 115
-19 36 -43 81 -55 101 -41 74 -275 477 -295 509 -5 8 -33 55 -62 105 -65 112
-157 208 -213 221 -22 6 -56 7 -75 4z"/>
<path d="M979 4045 c-54 -29 -46 -62 71 -320 40 -88 81 -180 92 -204 38 -85
210 -476 231 -526 42 -99 85 -162 114 -168 15 -3 36 -1 46 5 20 10 93 158 190
384 19 43 46 104 60 134 14 30 44 98 67 150 56 127 78 177 100 225 37 81 78
181 96 233 19 53 19 54 -1 68 -11 8 -37 20 -58 26 -36 11 -40 10 -57 -13 -11
-13 -42 -80 -71 -149 -29 -69 -62 -147 -74 -175 -13 -27 -41 -95 -65 -149 -63
-151 -211 -480 -219 -489 -9 -9 -28 28 -81 158 -40 97 -138 330 -165 390 -7
17 -37 86 -65 155 -61 146 -106 238 -128 263 -18 20 -48 21 -83 2z"/>
<path d="M2670 4050 c-16 -3 -32 -19 -43 -42 -17 -34 -18 -75 -18 -545 0 -279
5 -530 10 -557 16 -85 -11 -80 442 -80 383 0 402 0 415 19 18 25 18 59 -1 95
l-16 30 -339 0 -340 0 -1 48 c-4 204 -3 362 1 363 3 1 82 3 175 4 94 2 188 3
210 4 36 1 44 6 78 52 57 78 52 89 -35 89 -261 1 -414 4 -423 7 -6 2 -10 72
-9 186 l0 182 60 2 c32 2 189 4 347 5 319 3 307 0 307 71 0 24 -7 44 -20 57
-18 18 -34 19 -397 18 -208 -1 -389 -4 -403 -8z"/>
<path d="M4158 4049 c-16 -4 -28 -4 -28 -1 0 4 -8 -5 -17 -18 -17 -23 -18 -67
-18 -575 0 -302 3 -562 8 -577 12 -46 37 -52 222 -52 200 -1 269 6 350 34 102
34 147 62 221 135 84 84 147 193 170 296 13 58 12 228 -1 296 -40 207 -196
377 -408 445 -52 17 -94 21 -267 22 -113 2 -217 -1 -232 -5z m407 -144 c55 -8
174 -67 216 -107 99 -94 141 -197 142 -348 1 -119 -21 -204 -74 -284 -64 -95
-182 -176 -280 -191 -36 -5 -264 -10 -306 -6 -10 1 -13 105 -12 466 l0 465 22
5 c56 12 214 12 292 0z"/>
<path d="M6968 4045 c-136 -27 -277 -117 -359 -230 -66 -90 -96 -158 -114
-265 -36 -202 32 -413 178 -554 121 -116 248 -166 422 -167 154 0 294 47 378
125 47 45 52 94 12 120 -25 16 -29 15 -118 -25 -136 -61 -165 -70 -244 -74
-130 -7 -248 39 -344 134 -227 227 -161 615 130 759 65 32 84 37 166 40 110 5
168 -9 296 -74 l88 -44 24 23 c13 12 27 34 31 49 5 22 0 33 -27 60 -37 37
-128 88 -202 113 -66 22 -230 27 -317 10z"/>
<path d="M5733 4038 c-16 -8 -24 -23 -29 -54 -3 -24 -4 -287 -2 -584 4 -520 5
-541 24 -555 28 -21 86 -19 112 5 21 20 22 29 22 183 0 89 0 335 1 547 0 212
0 395 0 408 -1 14 -13 30 -33 42 -36 22 -62 24 -95 8z"/>
<path d="M470 2452 c-33 -5 -47 -17 -53 -49 -8 -42 8 -71 45 -81 18 -5 107
-10 198 -11 90 -1 165 -3 166 -4 2 -1 4 -238 6 -525 3 -510 4 -524 23 -539 20
-15 107 -14 123 1 4 4 8 245 10 534 2 290 4 528 6 529 1 1 86 3 189 4 119 1
192 6 201 13 16 12 19 25 17 73 -2 64 14 62 -469 60 -240 -1 -448 -4 -462 -5z"/>
<path d="M2085 2450 c-80 -9 -87 -11 -107 -39 -14 -21 -16 -78 -15 -583 l2
-559 25 -19 c43 -34 117 -19 121 23 1 7 3 23 5 37 1 14 5 105 7 203 3 98 8
181 11 184 3 3 56 6 118 7 l112 1 60 -100 c108 -178 221 -339 254 -361 38 -26
64 -22 93 14 26 34 20 57 -40 152 -94 146 -191 312 -191 325 0 8 9 16 20 20
26 8 80 61 117 116 49 73 58 108 57 224 -1 66 -6 91 -29 139 -48 101 -117 162
-225 201 -49 18 -285 27 -395 15z m339 -156 c155 -55 208 -252 98 -367 -56
-60 -87 -68 -259 -73 -122 -4 -133 -3 -134 13 -7 115 -3 429 5 436 19 13 247
6 290 -9z"/>
<path d="M3383 2449 c-54 -20 -53 -12 -53 -595 -1 -558 2 -593 40 -614 44 -24
109 -4 117 36 2 11 5 264 7 564 4 585 3 590 -46 606 -35 12 -41 12 -65 3z"/>
<path d="M4695 2452 c-150 -12 -284 -72 -385 -172 -122 -120 -184 -270 -184
-445 0 -168 61 -312 184 -434 114 -112 259 -172 414 -173 210 0 425 97 428
192 1 33 -29 70 -57 70 -6 0 -50 -19 -96 -43 -111 -56 -151 -69 -223 -73 -134
-7 -245 32 -345 123 -66 59 -124 162 -140 248 -9 48 -8 159 2 200 36 146 137
269 273 332 46 21 79 28 146 31 112 6 159 -6 285 -70 l103 -53 25 26 c35 34
40 70 14 103 -26 32 -147 101 -214 120 -48 14 -167 24 -230 18z"/>
<path d="M5812 2434 l-27 -22 0 -570 c0 -463 3 -572 14 -585 17 -22 74 -32 99
-18 33 18 41 66 45 266 l4 191 49 47 c27 25 55 47 61 47 13 0 53 -49 243 -301
169 -225 192 -251 224 -262 26 -9 32 -6 57 23 16 18 29 41 29 51 0 22 -53 98
-267 386 -90 120 -163 221 -163 225 0 4 88 96 196 205 206 208 244 250 244
275 0 15 -56 68 -73 68 -26 0 -125 -88 -342 -306 -134 -134 -247 -244 -252
-244 -5 0 -9 111 -9 247 l0 246 -32 27 c-38 31 -63 33 -100 4z"/>
<path d="M7585 2453 c-128 -8 -253 -54 -314 -114 -71 -70 -103 -200 -70 -282
21 -53 66 -113 114 -152 44 -37 149 -79 221 -91 254 -39 349 -96 359 -214 9
-116 -58 -191 -197 -219 -151 -32 -297 12 -382 113 -53 64 -64 68 -113 46 -54
-24 -61 -48 -27 -102 56 -91 127 -143 250 -183 182 -59 426 -13 542 102 121
121 110 329 -24 452 -76 71 -145 95 -372 130 -84 13 -135 36 -180 82 -83 85
-54 201 68 265 28 15 57 19 150 19 105 0 119 -3 165 -27 28 -15 75 -52 107
-82 60 -60 100 -72 132 -40 55 54 -47 195 -185 259 -56 25 -167 42 -244 38z"/>
<path d="M3205 690 c-93 -20 -176 -121 -191 -232 -12 -90 59 -213 146 -251 78
-35 206 -16 249 37 18 21 29 182 14 197 -12 12 -157 19 -173 9 -6 -4 -8 -14
-4 -23 6 -17 19 -23 67 -31 55 -9 63 -30 42 -108 -9 -35 -51 -52 -111 -43 -81
11 -128 47 -160 124 -26 62 -7 169 38 215 56 55 163 67 251 26 55 -24 66 -21
48 14 -28 52 -134 84 -216 66z"/>
<path d="M3871 678 c-29 -46 -71 -137 -114 -248 -72 -184 -83 -218 -71 -230
17 -17 41 -1 58 40 8 21 21 42 27 46 18 11 207 6 230 -6 10 -6 21 -21 25 -35
12 -46 74 -74 74 -32 0 17 -128 335 -151 376 -5 9 -18 37 -29 64 -22 53 -29
57 -49 25z m25 -117 c-4 -5 -2 -11 2 -13 8 -3 82 -180 82 -197 0 -10 -129 -14
-164 -5 -18 4 -22 11 -18 30 2 13 8 24 13 24 5 0 9 7 9 16 0 22 62 154 72 154
5 0 7 -4 4 -9z"/>
<path d="M4363 687 c-10 -17 -12 -459 -2 -479 9 -17 33 -18 49 -2 6 6 11 77
13 162 1 84 5 152 8 152 4 0 14 -21 24 -47 21 -55 99 -205 127 -245 12 -17 24
-25 34 -21 8 3 45 67 82 142 36 75 69 138 74 139 4 2 8 11 8 19 0 9 3 13 7 10
4 -4 7 -74 8 -157 0 -82 3 -151 6 -154 3 -3 16 -7 30 -8 l24 -3 0 235 c-1 214
-2 235 -18 238 -9 2 -23 -2 -30 -10 -21 -21 -73 -111 -102 -174 -90 -197 -97
-206 -121 -148 -17 41 -115 238 -154 311 -23 42 -54 61 -67 40z"/>
<path d="M5190 683 c-16 -12 -18 -31 -19 -240 0 -126 4 -234 8 -241 8 -13 59
-16 269 -13 64 1 72 3 72 20 0 11 -5 23 -12 27 -6 4 -66 8 -132 10 -67 1 -124
2 -128 3 -3 1 -6 32 -5 71 1 81 0 80 97 75 82 -4 108 2 116 27 9 29 1 32 -79
34 -40 1 -87 2 -105 3 l-34 1 4 88 3 87 120 1 c66 1 127 2 136 3 20 1 31 37
15 50 -18 14 -304 9 -326 -6z"/>
</g>
</svg>
